<?xml version="1.0" encoding="UTF-8" standalone="no"?>
<!DOCTYPE svg PUBLIC "-//W3C//DTD SVG 1.0//EN"
 "http://www.w3.org/TR/2001/REC-SVG-20010904/DTD/svg10.dtd" [
 <!ATTLIST svg xmlns:xlink CDATA #FIXED "http://www.w3.org/1999/xlink">
]>
<!-- Generated by dot version 2.8 (Fri Nov 17 20:26:27 UTC 2006)
     For user: (colin) coli,,, -->
<!-- Title: G Pages: 1 -->
<svg width="594pt" height="406pt"
 viewBox = "0 0 594 406"
 xmlns="http://www.w3.org/2000/svg" xmlns:xlink="http://www.w3.org/1999/xlink">
<g id="graph0" class="graph" style="font-family:Times-Roman;font-size:14.00;">
<title>G</title>
<polygon style="fill:white;stroke:white;" points="-2,408 -2,-2 596,-2 596,408 -2,408"/>
<!-- AS_21844 -->
<g id="node1" class="node"><title>AS_21844</title>
<polygon style="fill:none;stroke:black;" points="281,301 227,301 227,313 281,313 281,301"/>
<text text-anchor="middle" x="254" y="309" style="font-size:5.00pt;">THEPLANET&#45;AS</text>
</g>
<!-- synergia -->
<g id="node3" class="node"><title>synergia</title>
<a xlink:href="/Servers/Manage/4" xlink:title="synergia">
<polygon style="fill:#b2dfee;stroke:#b2dfee;" points="233,389 179,389 179,401 233,401 233,389"/>
<text text-anchor="middle" x="206" y="397" style="font-size:5.00pt;">synergia</text>
</a>
</g>
<!-- AS_21844&#45;&#45;synergia -->
<g id="edge2" class="edge"><title>AS_21844&#45;&#45;synergia</title>
<path style="fill:none;stroke:black;" d="M250,314C241,330 218,372 210,388"/>
</g>
<!-- AS_5713 -->
<g id="node4" class="node"><title>AS_5713</title>
<polygon style="fill:none;stroke:black;" points="409,263 355,263 355,275 409,275 409,263"/>
<text text-anchor="middle" x="382" y="271" style="font-size:5.00pt;">SAIX&#45;NET</text>
</g>
<!-- AS_21844&#45;&#45;AS_5713 -->
<g id="edge74" class="edge"><title>AS_21844&#45;&#45;AS_5713</title>
<path style="fill:none;stroke:black;" d="M276,300C300,294 337,283 360,276"/>
</g>
<!-- bullclothing -->
<g id="node6" class="node"><title>bullclothing</title>
<a xlink:href="/Servers/Manage/13" xlink:title="bullclothing">
<polygon style="fill:#b2dfee;stroke:#b2dfee;" points="465,354 411,354 411,366 465,366 465,354"/>
<text text-anchor="middle" x="438" y="362" style="font-size:5.00pt;">bullclothing</text>
</a>
</g>
<!-- AS_5713&#45;&#45;bullclothing -->
<g id="edge4" class="edge"><title>AS_5713&#45;&#45;bullclothing</title>
<path style="fill:none;stroke:black;" d="M386,276C396,292 424,337 434,353"/>
</g>
<!-- cvideo -->
<g id="node8" class="node"><title>cvideo</title>
<a xlink:href="/Servers/Manage/17" xlink:title="cvideo">
<polygon style="fill:#b2dfee;stroke:#b2dfee;" points="413,370 359,370 359,382 413,382 413,370"/>
<text text-anchor="middle" x="386" y="378" style="font-size:5.00pt;">cvideo</text>
</a>
</g>
<!-- AS_5713&#45;&#45;cvideo -->
<g id="edge6" class="edge"><title>AS_5713&#45;&#45;cvideo</title>
<path style="fill:none;stroke:black;" d="M382,276C383,295 385,350 386,369"/>
</g>
<!-- dwscasa -->
<g id="node10" class="node"><title>dwscasa</title>
<a xlink:href="/Servers/Manage/24" xlink:title="dwscasa">
<polygon style="fill:#b2dfee;stroke:#b2dfee;" points="482,335 428,335 428,347 482,347 482,335"/>
<text text-anchor="middle" x="455" y="343" style="font-size:5.00pt;">dwscasa</text>
</a>
</g>
<!-- AS_5713&#45;&#45;dwscasa -->
<g id="edge8" class="edge"><title>AS_5713&#45;&#45;dwscasa</title>
<path style="fill:none;stroke:black;" d="M389,276C403,289 434,320 448,334"/>
</g>
<!-- southernexports -->
<g id="node12" class="node"><title>southernexports</title>
<a xlink:href="/Servers/Manage/29" xlink:title="southernexports">
<polygon style="fill:#b2dfee;stroke:#b2dfee;" points="344,335 290,335 290,347 344,347 344,335"/>
<text text-anchor="middle" x="317" y="343" style="font-size:5.00pt;">southernexports</text>
</a>
</g>
<!-- AS_5713&#45;&#45;southernexports -->
<g id="edge10" class="edge"><title>AS_5713&#45;&#45;southernexports</title>
<path style="fill:none;stroke:black;" d="M376,276C364,289 336,320 323,334"/>
</g>
<!-- hrkafrica -->
<g id="node14" class="node"><title>hrkafrica</title>
<a xlink:href="/Servers/Manage/38" xlink:title="hrkafrica">
<polygon style="fill:#b2dfee;stroke:#b2dfee;" points="358,355 304,355 304,367 358,367 358,355"/>
<text text-anchor="middle" x="331" y="363" style="font-size:5.00pt;">hrkafrica</text>
</a>
</g>
<!-- AS_5713&#45;&#45;hrkafrica -->
<g id="edge12" class="edge"><title>AS_5713&#45;&#45;hrkafrica</title>
<path style="fill:none;stroke:black;" d="M378,276C369,293 344,338 335,354"/>
</g>
<!-- AS_3741 -->
<g id="node15" class="node"><title>AS_3741</title>
<polygon style="fill:none;stroke:black;" points="473,113 419,113 419,125 473,125 473,113"/>
<text text-anchor="middle" x="446" y="121" style="font-size:5.00pt;">IS</text>
</g>
<!-- AS_5713&#45;&#45;AS_3741 -->
<g id="edge76" class="edge"><title>AS_5713&#45;&#45;AS_3741</title>
<path style="fill:none;stroke:black;" d="M385,262C395,237 433,150 443,126"/>
</g>
<!-- choppertech -->
<g id="node17" class="node"><title>choppertech</title>
<a xlink:href="/Servers/Manage/6" xlink:title="choppertech">
<polygon style="fill:#b2dfee;stroke:#b2dfee;" points="563,166 509,166 509,178 563,178 563,166"/>
<text text-anchor="middle" x="536" y="174" style="font-size:5.00pt;">choppertech</text>
</a>
</g>
<!-- AS_3741&#45;&#45;choppertech -->
<g id="edge14" class="edge"><title>AS_3741&#45;&#45;choppertech</title>
<path style="fill:none;stroke:black;" d="M457,126C475,136 508,155 525,165"/>
</g>
<!-- tescon -->
<g id="node19" class="node"><title>tescon</title>
<a xlink:href="/Servers/Manage/7" xlink:title="tescon">
<polygon style="fill:#b2dfee;stroke:#b2dfee;" points="500,45 446,45 446,57 500,57 500,45"/>
<text text-anchor="middle" x="473" y="53" style="font-size:5.00pt;">tescon</text>
</a>
</g>
<!-- AS_3741&#45;&#45;tescon -->
<g id="edge16" class="edge"><title>AS_3741&#45;&#45;tescon</title>
<path style="fill:none;stroke:black;" d="M449,112C454,99 465,71 470,58"/>
</g>
<!-- achillies -->
<g id="node21" class="node"><title>achillies</title>
<a xlink:href="/Servers/Manage/8" xlink:title="achillies">
<polygon style="fill:#b2dfee;stroke:#b2dfee;" points="445,29 391,29 391,41 445,41 445,29"/>
<text text-anchor="middle" x="418" y="37" style="font-size:5.00pt;">achillies</text>
</a>
</g>
<!-- AS_3741&#45;&#45;achillies -->
<g id="edge18" class="edge"><title>AS_3741&#45;&#45;achillies</title>
<path style="fill:none;stroke:black;" d="M444,112C438,97 425,58 420,42"/>
</g>
<!-- align -->
<g id="node23" class="node"><title>align</title>
<a xlink:href="/Servers/Manage/9" xlink:title="align">
<polygon style="fill:#b2dfee;stroke:#b2dfee;" points="383,25 329,25 329,37 383,37 383,25"/>
<text text-anchor="middle" x="356" y="33" style="font-size:5.00pt;">align</text>
</a>
</g>
<!-- AS_3741&#45;&#45;align -->
<g id="edge20" class="edge"><title>AS_3741&#45;&#45;align</title>
<path style="fill:none;stroke:black;" d="M439,112C422,96 379,54 363,38"/>
</g>
<!-- northwood -->
<g id="node25" class="node"><title>northwood</title>
<a xlink:href="/Servers/Manage/10" xlink:title="northwood">
<polygon style="fill:#b2dfee;stroke:#b2dfee;" points="494,10 440,10 440,22 494,22 494,10"/>
<text text-anchor="middle" x="467" y="18" style="font-size:5.00pt;">northwood</text>
</a>
</g>
<!-- AS_3741&#45;&#45;northwood -->
<g id="edge22" class="edge"><title>AS_3741&#45;&#45;northwood</title>
<path style="fill:none;stroke:black;" d="M447,112C451,93 462,41 466,23"/>
</g>
<!-- petzer -->
<g id="node27" class="node"><title>petzer</title>
<a xlink:href="/Servers/Manage/14" xlink:title="petzer">
<polygon style="fill:#b2dfee;stroke:#b2dfee;" points="556,13 502,13 502,25 556,25 556,13"/>
<text text-anchor="middle" x="529" y="21" style="font-size:5.00pt;">petzer</text>
</a>
</g>
<!-- AS_3741&#45;&#45;petzer -->
<g id="edge24" class="edge"><title>AS_3741&#45;&#45;petzer</title>
<path style="fill:none;stroke:black;" d="M451,112C466,94 508,44 523,26"/>
</g>
<!-- crc&#45;sa -->
<g id="node29" class="node"><title>crc&#45;sa</title>
<a xlink:href="/Servers/Manage/15" xlink:title="crc&#45;sa">
<polygon style="fill:#b2dfee;stroke:#b2dfee;" points="381,102 327,102 327,114 381,114 381,102"/>
<text text-anchor="middle" x="354" y="110" style="font-size:5.00pt;">crc&#45;sa</text>
</a>
</g>
<!-- AS_3741&#45;&#45;crc&#45;sa -->
<g id="edge26" class="edge"><title>AS_3741&#45;&#45;crc&#45;sa</title>
<path style="fill:none;stroke:black;" d="M419,116C407,115 393,113 381,111"/>
</g>
<!-- mgps -->
<g id="node31" class="node"><title>mgps</title>
<a xlink:href="/Servers/Manage/16" xlink:title="mgps">
<polygon style="fill:#b2dfee;stroke:#b2dfee;" points="576,143 522,143 522,155 576,155 576,143"/>
<text text-anchor="middle" x="549" y="151" style="font-size:5.00pt;">mgps</text>
</a>
</g>
<!-- AS_3741&#45;&#45;mgps -->
<g id="edge28" class="edge"><title>AS_3741&#45;&#45;mgps</title>
<path style="fill:none;stroke:black;" d="M468,126C486,131 510,137 527,142"/>
</g>
<!-- bluepig -->
<g id="node33" class="node"><title>bluepig</title>
<a xlink:href="/Servers/Manage/18" xlink:title="bluepig">
<polygon style="fill:#b2dfee;stroke:#b2dfee;" points="406,43 352,43 352,55 406,55 406,43"/>
<text text-anchor="middle" x="379" y="51" style="font-size:5.00pt;">bluepig</text>
</a>
</g>
<!-- AS_3741&#45;&#45;bluepig -->
<g id="edge30" class="edge"><title>AS_3741&#45;&#45;bluepig</title>
<path style="fill:none;stroke:black;" d="M440,112C427,99 398,69 385,56"/>
</g>
<!-- techserv -->
<g id="node35" class="node"><title>techserv</title>
<a xlink:href="/Servers/Manage/19" xlink:title="techserv">
<polygon style="fill:#b2dfee;stroke:#b2dfee;" points="520,209 466,209 466,221 520,221 520,209"/>
<text text-anchor="middle" x="493" y="217" style="font-size:5.00pt;">techserv</text>
</a>
</g>
<!-- AS_3741&#45;&#45;techserv -->
<g id="edge32" class="edge"><title>AS_3741&#45;&#45;techserv</title>
<path style="fill:none;stroke:black;" d="M449,126C458,143 481,191 490,208"/>
</g>
<!-- confco -->
<g id="node37" class="node"><title>confco</title>
<a xlink:href="/Servers/Manage/20" xlink:title="confco">
<polygon style="fill:#b2dfee;stroke:#b2dfee;" points="585,80 531,80 531,92 585,92 585,80"/>
<text text-anchor="middle" x="558" y="88" style="font-size:5.00pt;">confco</text>
</a>
</g>
<!-- AS_3741&#45;&#45;confco -->
<g id="edge34" class="edge"><title>AS_3741&#45;&#45;confco</title>
<path style="fill:none;stroke:black;" d="M468,112C488,107 516,98 536,93"/>
</g>
<!-- svarchitects -->
<g id="node39" class="node"><title>svarchitects</title>
<a xlink:href="/Servers/Manage/21" xlink:title="svarchitects">
<polygon style="fill:#b2dfee;stroke:#b2dfee;" points="582,51 528,51 528,63 582,63 582,51"/>
<text text-anchor="middle" x="555" y="59" style="font-size:5.00pt;">svarchitects</text>
</a>
</g>
<!-- AS_3741&#45;&#45;svarchitects -->
<g id="edge36" class="edge"><title>AS_3741&#45;&#45;svarchitects</title>
<path style="fill:none;stroke:black;" d="M458,112C479,100 523,75 543,64"/>
</g>
<!-- dbwealthcorp -->
<g id="node41" class="node"><title>dbwealthcorp</title>
<a xlink:href="/Servers/Manage/23" xlink:title="dbwealthcorp">
<polygon style="fill:#b2dfee;stroke:#b2dfee;" points="564,31 510,31 510,43 564,43 564,31"/>
<text text-anchor="middle" x="537" y="39" style="font-size:5.00pt;">dbwealthcorp</text>
</a>
</g>
<!-- AS_3741&#45;&#45;dbwealthcorp -->
<g id="edge38" class="edge"><title>AS_3741&#45;&#45;dbwealthcorp</title>
<path style="fill:none;stroke:black;" d="M453,112C470,97 513,59 530,44"/>
</g>
<!-- wah -->
<g id="node43" class="node"><title>wah</title>
<a xlink:href="/Servers/Manage/25" xlink:title="wah">
<polygon style="fill:#b2dfee;stroke:#b2dfee;" points="434,5 380,5 380,17 434,17 434,5"/>
<text text-anchor="middle" x="407" y="13" style="font-size:5.00pt;">wah</text>
</a>
</g>
<!-- AS_3741&#45;&#45;wah -->
<g id="edge40" class="edge"><title>AS_3741&#45;&#45;wah</title>
<path style="fill:none;stroke:black;" d="M444,112C437,93 416,37 409,18"/>
</g>
<!-- dalinyebo -->
<g id="node45" class="node"><title>dalinyebo</title>
<a xlink:href="/Servers/Manage/26" xlink:title="dalinyebo">
<polygon style="fill:#b2dfee;stroke:#b2dfee;" points="459,206 405,206 405,218 459,218 459,206"/>
<text text-anchor="middle" x="432" y="214" style="font-size:5.00pt;">dalinyebo</text>
</a>
</g>
<!-- AS_3741&#45;&#45;dalinyebo -->
<g id="edge42" class="edge"><title>AS_3741&#45;&#45;dalinyebo</title>
<path style="fill:none;stroke:black;" d="M445,126C443,143 436,188 433,205"/>
</g>
<!-- chapman -->
<g id="node47" class="node"><title>chapman</title>
<a xlink:href="/Servers/Manage/27" xlink:title="chapman">
<polygon style="fill:#b2dfee;stroke:#b2dfee;" points="387,69 333,69 333,81 387,81 387,69"/>
<text text-anchor="middle" x="360" y="77" style="font-size:5.00pt;">chapman</text>
</a>
</g>
<!-- AS_3741&#45;&#45;chapman -->
<g id="edge44" class="edge"><title>AS_3741&#45;&#45;chapman</title>
<path style="fill:none;stroke:black;" d="M433,112C417,104 389,90 373,82"/>
</g>
<!-- larsonfalconer -->
<g id="node49" class="node"><title>larsonfalconer</title>
<a xlink:href="/Servers/Manage/28" xlink:title="larsonfalconer">
<polygon style="fill:#b2dfee;stroke:#b2dfee;" points="566,187 512,187 512,199 566,199 566,187"/>
<text text-anchor="middle" x="539" y="195" style="font-size:5.00pt;">larsonfalconer</text>
</a>
</g>
<!-- AS_3741&#45;&#45;larsonfalconer -->
<g id="edge46" class="edge"><title>AS_3741&#45;&#45;larsonfalconer</title>
<path style="fill:none;stroke:black;" d="M454,126C472,140 513,172 531,186"/>
</g>
<!-- diakonia -->
<g id="node51" class="node"><title>diakonia</title>
<a xlink:href="/Servers/Manage/30" xlink:title="diakonia">
<polygon style="fill:#b2dfee;stroke:#b2dfee;" points="570,98 516,98 516,110 570,110 570,98"/>
<text text-anchor="middle" x="543" y="106" style="font-size:5.00pt;">diakonia</text>
</a>
</g>
<!-- AS_3741&#45;&#45;diakonia -->
<g id="edge48" class="edge"><title>AS_3741&#45;&#45;diakonia</title>
<path style="fill:none;stroke:black;" d="M473,115C486,113 503,110 516,108"/>
</g>
<!-- betterconnect -->
<g id="node53" class="node"><title>betterconnect</title>
<a xlink:href="/Servers/Manage/33" xlink:title="betterconnect">
<polygon style="fill:#b2dfee;stroke:#b2dfee;" points="522,64 468,64 468,76 522,76 522,64"/>
<text text-anchor="middle" x="495" y="72" style="font-size:5.00pt;">betterconnect</text>
</a>
</g>
<!-- AS_3741&#45;&#45;betterconnect -->
<g id="edge50" class="edge"><title>AS_3741&#45;&#45;betterconnect</title>
<path style="fill:none;stroke:black;" d="M453,112C462,103 479,86 488,77"/>
</g>
<!-- clt&#45;www -->
<g id="node55" class="node"><title>clt&#45;www</title>
<a xlink:href="/Servers/Manage/35" xlink:title="clt&#45;www">
<polygon style="fill:#b2dfee;stroke:#b2dfee;" points="389,147 335,147 335,159 389,159 389,147"/>
<text text-anchor="middle" x="362" y="155" style="font-size:5.00pt;">clt&#45;www</text>
</a>
</g>
<!-- AS_3741&#45;&#45;clt&#45;www -->
<g id="edge52" class="edge"><title>AS_3741&#45;&#45;clt&#45;www</title>
<path style="fill:none;stroke:black;" d="M430,126C415,132 393,140 378,146"/>
</g>
<!-- ifsdbn -->
<g id="node57" class="node"><title>ifsdbn</title>
<a xlink:href="/Servers/Manage/36" xlink:title="ifsdbn">
<polygon style="fill:#b2dfee;stroke:#b2dfee;" points="506,185 452,185 452,197 506,197 506,185"/>
<text text-anchor="middle" x="479" y="193" style="font-size:5.00pt;">ifsdbn</text>
</a>
</g>
<!-- AS_3741&#45;&#45;ifsdbn -->
<g id="edge54" class="edge"><title>AS_3741&#45;&#45;ifsdbn</title>
<path style="fill:none;stroke:black;" d="M449,126C455,139 469,170 476,184"/>
</g>
<!-- fatima -->
<g id="node59" class="node"><title>fatima</title>
<a xlink:href="/Servers/Manage/37" xlink:title="fatima">
<polygon style="fill:#b2dfee;stroke:#b2dfee;" points="418,183 364,183 364,195 418,195 418,183"/>
<text text-anchor="middle" x="391" y="191" style="font-size:5.00pt;">fatima</text>
</a>
</g>
<!-- AS_3741&#45;&#45;fatima -->
<g id="edge56" class="edge"><title>AS_3741&#45;&#45;fatima</title>
<path style="fill:none;stroke:black;" d="M441,126C430,139 407,169 396,182"/>
</g>
<!-- revertexdbn -->
<g id="node61" class="node"><title>revertexdbn</title>
<a xlink:href="/Servers/Manage/39" xlink:title="revertexdbn">
<polygon style="fill:#b2dfee;stroke:#b2dfee;" points="589,120 535,120 535,132 589,132 589,120"/>
<text text-anchor="middle" x="562" y="128" style="font-size:5.00pt;">revertexdbn</text>
</a>
</g>
<!-- AS_3741&#45;&#45;revertexdbn -->
<g id="edge58" class="edge"><title>AS_3741&#45;&#45;revertexdbn</title>
<path style="fill:none;stroke:black;" d="M473,121C491,122 516,123 535,125"/>
</g>
<!-- AS_33762 -->
<g id="node62" class="node"><title>AS_33762</title>
<polygon style="fill:none;stroke:black;" points="326,125 272,125 272,137 326,137 326,125"/>
<text text-anchor="middle" x="299" y="133" style="font-size:5.00pt;">WBSMOBILE</text>
</g>
<!-- AS_3741&#45;&#45;AS_33762 -->
<g id="edge78" class="edge"><title>AS_3741&#45;&#45;AS_33762</title>
<path style="fill:none;stroke:black;" d="M419,121C392,123 352,127 326,129"/>
</g>
<!-- wealthcorp&#45;pta -->
<g id="node64" class="node"><title>wealthcorp&#45;pta</title>
<a xlink:href="/Servers/Manage/11" xlink:title="wealthcorp&#45;pta">
<polygon style="fill:#b2dfee;stroke:#b2dfee;" points="241,65 187,65 187,77 241,77 241,65"/>
<text text-anchor="middle" x="214" y="73" style="font-size:5.00pt;">wealthcorp&#45;pta</text>
</a>
</g>
<!-- AS_33762&#45;&#45;wealthcorp&#45;pta -->
<g id="edge60" class="edge"><title>AS_33762&#45;&#45;wealthcorp&#45;pta</title>
<path style="fill:none;stroke:black;" d="M290,124C273,113 239,89 223,78"/>
</g>
<!-- AS_2018 -->
<g id="node65" class="node"><title>AS_2018</title>
<polygon style="fill:none;stroke:black;" points="198,170 144,170 144,182 198,182 198,170"/>
<text text-anchor="middle" x="171" y="178" style="font-size:5.00pt;">TENET&#45;1</text>
</g>
<!-- AS_33762&#45;&#45;AS_2018 -->
<g id="edge80" class="edge"><title>AS_33762&#45;&#45;AS_2018</title>
<path style="fill:none;stroke:black;" d="M280,138C256,146 214,161 190,169"/>
</g>
<!-- unizulu -->
<g id="node67" class="node"><title>unizulu</title>
<a xlink:href="/Servers/Manage/22" xlink:title="unizulu">
<polygon style="fill:#b2dfee;stroke:#b2dfee;" points="100,164 46,164 46,176 100,176 100,164"/>
<text text-anchor="middle" x="73" y="172" style="font-size:5.00pt;">unizulu</text>
</a>
</g>
<!-- AS_2018&#45;&#45;unizulu -->
<g id="edge62" class="edge"><title>AS_2018&#45;&#45;unizulu</title>
<path style="fill:none;stroke:black;" d="M144,174C130,174 114,173 100,172"/>
</g>
<!-- uzulu&#45;rba -->
<g id="node69" class="node"><title>uzulu&#45;rba</title>
<a xlink:href="/Servers/Manage/31" xlink:title="uzulu&#45;rba">
<polygon style="fill:#b2dfee;stroke:#b2dfee;" points="113,119 59,119 59,131 113,131 113,119"/>
<text text-anchor="middle" x="86" y="127" style="font-size:5.00pt;">uzulu&#45;rba</text>
</a>
</g>
<!-- AS_2018&#45;&#45;uzulu&#45;rba -->
<g id="edge64" class="edge"><title>AS_2018&#45;&#45;uzulu&#45;rba</title>
<path style="fill:none;stroke:black;" d="M160,169C144,160 113,141 97,132"/>
</g>
<!-- AS_4565 -->
<g id="node70" class="node"><title>AS_4565</title>
<polygon style="fill:none;stroke:black;" points="164,280 108,280 108,292 164,292 164,280"/>
<text text-anchor="middle" x="136" y="288" style="font-size:5.00pt;">MEGAPATH2&#45;US</text>
</g>
<!-- AS_2018&#45;&#45;AS_4565 -->
<g id="edge82" class="edge"><title>AS_2018&#45;&#45;AS_4565</title>
<path style="fill:none;stroke:black;" d="M169,183C162,202 144,260 138,279"/>
</g>
<!-- AS_4565&#45;&#45;AS_21844 -->
<g id="edge72" class="edge"><title>AS_4565&#45;&#45;AS_21844</title>
<path style="fill:none;stroke:black;" d="M164,291C183,294 208,299 227,302"/>
</g>
<!-- lilith -->
<g id="node72" class="node"><title>lilith</title>
<a xlink:href="/Servers/Manage/1" xlink:title="lilith">
<polygon style="fill:#b2dfee;stroke:#b2dfee;" points="70,327 16,327 16,339 70,339 70,327"/>
<text text-anchor="middle" x="43" y="335" style="font-size:5.00pt;">lilith</text>
</a>
</g>
<!-- AS_4565&#45;&#45;lilith -->
<g id="edge66" class="edge"><title>AS_4565&#45;&#45;lilith</title>
<path style="fill:none;stroke:black;" d="M123,293C106,301 74,317 56,326"/>
</g>
<!-- croc -->
<g id="node74" class="node"><title>croc</title>
<a xlink:href="/Servers/Manage/2" xlink:title="croc">
<polygon style="fill:#b2dfee;stroke:#b2dfee;" points="99,361 45,361 45,373 99,373 99,361"/>
<text text-anchor="middle" x="72" y="369" style="font-size:5.00pt;">croc</text>
</a>
</g>
<!-- AS_4565&#45;&#45;croc -->
<g id="edge68" class="edge"><title>AS_4565&#45;&#45;croc</title>
<path style="fill:none;stroke:black;" d="M131,293C119,308 90,345 77,360"/>
</g>
<!-- siza -->
<g id="node76" class="node"><title>siza</title>
<a xlink:href="/Servers/Manage/3" xlink:title="siza">
<polygon style="fill:#b2dfee;stroke:#b2dfee;" points="59,283 5,283 5,295 59,295 59,283"/>
<text text-anchor="middle" x="32" y="291" style="font-size:5.00pt;">siza</text>
</a>
</g>
<!-- AS_4565&#45;&#45;siza -->
<g id="edge70" class="edge"><title>AS_4565&#45;&#45;siza</title>
<path style="fill:none;stroke:black;" d="M108,287C93,287 74,288 59,288"/>
</g>
</g>
</svg>
